<?xml version="1.0" standalone="no"?>
<!DOCTYPE svg PUBLIC "-//W3C//DTD SVG 20010904//EN"
 "http://www.w3.org/TR/2001/REC-SVG-20010904/DTD/svg10.dtd">
<svg version="1.0" xmlns="http://www.w3.org/2000/svg"
 width="512.000000pt" height="512.000000pt" viewBox="0 0 512.000000 512.000000"
 preserveAspectRatio="xMidYMid meet">

<g transform="translate(0.000000,512.000000) scale(0.100000,-0.100000)"
fill="#000000" stroke="none">
<path d="M4685 4179 c-81 -8 -182 -30 -275 -61 -224 -72 -1205 -559 -2773
-1374 -257 -134 -473 -244 -480 -244 -6 0 -151 75 -321 167 -177 95 -321 166
-336 166 -33 -1 -448 -218 -477 -250 -25 -27 -29 -50 -10 -74 12 -15 1024
-892 1082 -937 18 -15 37 -21 51 -18 11 3 254 127 539 276 284 148 520 270
524 270 4 0 44 -255 88 -566 58 -404 86 -571 96 -582 8 -8 27 -15 41 -15 26 1
518 261 548 291 9 9 179 378 377 820 199 442 368 816 376 832 11 22 93 68 412
235 490 256 518 271 625 348 185 132 288 246 330 364 26 76 20 148 -19 212
-70 113 -204 160 -398 140z"/>
<path d="M1827 3563 c-303 -165 -314 -173 -289 -226 9 -20 279 -352 286 -352
9 0 1304 680 1298 682 -10 3 -937 53 -976 53 -21 -1 -127 -53 -319 -157z"/>
</g>
</svg>
